<mxfile host="app.diagrams.net" modified="2023-09-18T02:52:16.057Z" agent="Mozilla/5.0 (Windows NT 10.0; Win64; x64) AppleWebKit/537.36 (KHTML, like Gecko) Chrome/115.0.0.0 Safari/537.36 OPR/101.0.0.0" etag="2bsYq4XKDkyWDg7BII4y" version="21.7.5" type="github">
  <diagram id="C5RBs43oDa-KdzZeNtuy" name="Page-1">
    <mxGraphModel dx="1666" dy="454" grid="1" gridSize="10" guides="1" tooltips="1" connect="1" arrows="1" fold="1" page="1" pageScale="1" pageWidth="827" pageHeight="1169" math="0" shadow="0">
      <root>
        <mxCell id="WIyWlLk6GJQsqaUBKTNV-0" />
        <mxCell id="WIyWlLk6GJQsqaUBKTNV-1" parent="WIyWlLk6GJQsqaUBKTNV-0" />
        <mxCell id="H-5vEXhapMnXdz9t79wf-0" value="BaseIdentificador&#xa;&lt;&lt;Abstract&gt;&gt;" style="swimlane;fontStyle=2;align=center;verticalAlign=top;childLayout=stackLayout;horizontal=1;startSize=40;horizontalStack=0;resizeParent=1;resizeLast=0;collapsible=1;marginBottom=0;rounded=0;shadow=0;strokeWidth=1;fillColor=default;strokeColor=default;fillStyle=solid;" parent="WIyWlLk6GJQsqaUBKTNV-1" vertex="1">
          <mxGeometry x="273" y="120" width="280" height="100" as="geometry">
            <mxRectangle x="230" y="140" width="160" height="26" as="alternateBounds" />
          </mxGeometry>
        </mxCell>
        <mxCell id="H-5vEXhapMnXdz9t79wf-1" value="# codigo: int" style="text;align=left;verticalAlign=top;spacingLeft=4;spacingRight=4;overflow=hidden;rotatable=0;points=[[0,0.5],[1,0.5]];portConstraint=eastwest;fillColor=default;strokeColor=none;fillStyle=solid;" parent="H-5vEXhapMnXdz9t79wf-0" vertex="1">
          <mxGeometry y="40" width="280" height="26" as="geometry" />
        </mxCell>
        <mxCell id="H-5vEXhapMnXdz9t79wf-2" value="" style="line;html=1;strokeWidth=1;align=left;verticalAlign=middle;spacingTop=-1;spacingLeft=3;spacingRight=3;rotatable=0;labelPosition=right;points=[];portConstraint=eastwest;fillColor=default;strokeColor=default;fillStyle=solid;" parent="H-5vEXhapMnXdz9t79wf-0" vertex="1">
          <mxGeometry y="66" width="280" height="8" as="geometry" />
        </mxCell>
        <mxCell id="H-5vEXhapMnXdz9t79wf-3" value="+ BaseIdentificador(int)" style="text;align=left;verticalAlign=top;spacingLeft=4;spacingRight=4;overflow=hidden;rotatable=0;points=[[0,0.5],[1,0.5]];portConstraint=eastwest;fillColor=default;strokeColor=none;fillStyle=solid;" parent="H-5vEXhapMnXdz9t79wf-0" vertex="1">
          <mxGeometry y="74" width="280" height="26" as="geometry" />
        </mxCell>
        <mxCell id="H-5vEXhapMnXdz9t79wf-4" style="edgeStyle=orthogonalEdgeStyle;rounded=0;orthogonalLoop=1;jettySize=auto;html=1;exitX=0.5;exitY=0;exitDx=0;exitDy=0;entryX=0.5;entryY=1;entryDx=0;entryDy=0;" parent="WIyWlLk6GJQsqaUBKTNV-1" source="H-5vEXhapMnXdz9t79wf-5" target="H-5vEXhapMnXdz9t79wf-0" edge="1">
          <mxGeometry relative="1" as="geometry" />
        </mxCell>
        <mxCell id="H-5vEXhapMnXdz9t79wf-5" value="BaseVeiculo&#xa;&lt;&lt;Abstract&gt;&gt;" style="swimlane;fontStyle=2;align=center;verticalAlign=top;childLayout=stackLayout;horizontal=1;startSize=40;horizontalStack=0;resizeParent=1;resizeLast=0;collapsible=1;marginBottom=0;rounded=0;shadow=0;strokeWidth=1;fillColor=default;strokeColor=default;swimlaneLine=1;perimeterSpacing=0;" parent="WIyWlLk6GJQsqaUBKTNV-1" vertex="1">
          <mxGeometry x="295" y="250" width="237" height="364" as="geometry">
            <mxRectangle x="230" y="140" width="160" height="26" as="alternateBounds" />
          </mxGeometry>
        </mxCell>
        <mxCell id="H-5vEXhapMnXdz9t79wf-6" value="# nome: string&#xa;# modelo: string&#xa;# cor: string&#xa;# chassi: string&#xa;# placa: string&#xa;# anoModelo: int&#xa;# anoFabricacao: int&#xa;# fabricante: string&#xa;# potencia: string&#xa;# tipoCombustivel: string&#xa;# nomeProprietario: string&#xa;# estadoUF: string(2)&#xa;# cidadeUF: string&#xa;# tipoVeiculo: string&#xa;" style="text;align=left;verticalAlign=top;spacingLeft=4;spacingRight=4;overflow=hidden;rotatable=0;points=[[0,0.5],[1,0.5]];portConstraint=eastwest;fillColor=default;strokeColor=none;" parent="H-5vEXhapMnXdz9t79wf-5" vertex="1">
          <mxGeometry y="40" width="237" height="290" as="geometry" />
        </mxCell>
        <mxCell id="H-5vEXhapMnXdz9t79wf-7" value="" style="line;html=1;strokeWidth=1;align=left;verticalAlign=middle;spacingTop=-1;spacingLeft=3;spacingRight=3;rotatable=0;labelPosition=right;points=[];portConstraint=eastwest;fillColor=default;strokeColor=#000000;" parent="H-5vEXhapMnXdz9t79wf-5" vertex="1">
          <mxGeometry y="330" width="237" height="8" as="geometry" />
        </mxCell>
        <mxCell id="H-5vEXhapMnXdz9t79wf-8" value="+ BaseVeÃ­culo(int, ...string)" style="text;align=left;verticalAlign=top;spacingLeft=4;spacingRight=4;overflow=hidden;rotatable=0;points=[[0,0.5],[1,0.5]];portConstraint=eastwest;fillColor=default;strokeColor=none;" parent="H-5vEXhapMnXdz9t79wf-5" vertex="1">
          <mxGeometry y="338" width="237" height="26" as="geometry" />
        </mxCell>
        <mxCell id="H-5vEXhapMnXdz9t79wf-68" style="edgeStyle=orthogonalEdgeStyle;rounded=0;orthogonalLoop=1;jettySize=auto;html=1;exitX=0.5;exitY=0;exitDx=0;exitDy=0;entryX=0;entryY=0.5;entryDx=0;entryDy=0;" parent="WIyWlLk6GJQsqaUBKTNV-1" source="H-5vEXhapMnXdz9t79wf-10" target="H-5vEXhapMnXdz9t79wf-5" edge="1">
          <mxGeometry relative="1" as="geometry" />
        </mxCell>
        <mxCell id="H-5vEXhapMnXdz9t79wf-10" value="Caminhao" style="swimlane;fontStyle=2;align=center;verticalAlign=top;childLayout=stackLayout;horizontal=1;startSize=40;horizontalStack=0;resizeParent=1;resizeLast=0;collapsible=1;marginBottom=0;rounded=0;shadow=0;strokeWidth=1;" parent="WIyWlLk6GJQsqaUBKTNV-1" vertex="1">
          <mxGeometry x="-250" y="670" width="227" height="220" as="geometry">
            <mxRectangle x="230" y="140" width="160" height="26" as="alternateBounds" />
          </mxGeometry>
        </mxCell>
        <mxCell id="H-5vEXhapMnXdz9t79wf-11" value="- rodas: int&#xa;- eixos: int&#xa;- pesoLiquido: double&#xa;- pesoTotal: double&#xa;- codigoRenavam: string" style="text;align=left;verticalAlign=top;spacingLeft=4;spacingRight=4;overflow=hidden;rotatable=0;points=[[0,0.5],[1,0.5]];portConstraint=eastwest;fillColor=default;" parent="H-5vEXhapMnXdz9t79wf-10" vertex="1">
          <mxGeometry y="40" width="227" height="130" as="geometry" />
        </mxCell>
        <mxCell id="H-5vEXhapMnXdz9t79wf-12" value="" style="line;html=1;strokeWidth=1;align=left;verticalAlign=middle;spacingTop=-1;spacingLeft=3;spacingRight=3;rotatable=0;labelPosition=right;points=[];portConstraint=eastwest;" parent="H-5vEXhapMnXdz9t79wf-10" vertex="1">
          <mxGeometry y="170" width="227" height="8" as="geometry" />
        </mxCell>
        <mxCell id="H-5vEXhapMnXdz9t79wf-13" value="+ Caminhao(int, ...string)" style="text;align=left;verticalAlign=top;spacingLeft=4;spacingRight=4;overflow=hidden;rotatable=0;points=[[0,0.5],[1,0.5]];portConstraint=eastwest;fillColor=default;" parent="H-5vEXhapMnXdz9t79wf-10" vertex="1">
          <mxGeometry y="178" width="227" height="42" as="geometry" />
        </mxCell>
        <mxCell id="H-5vEXhapMnXdz9t79wf-65" style="edgeStyle=orthogonalEdgeStyle;rounded=0;orthogonalLoop=1;jettySize=auto;html=1;exitX=0.5;exitY=0;exitDx=0;exitDy=0;entryX=0.75;entryY=1;entryDx=0;entryDy=0;" parent="WIyWlLk6GJQsqaUBKTNV-1" source="H-5vEXhapMnXdz9t79wf-44" target="H-5vEXhapMnXdz9t79wf-5" edge="1">
          <mxGeometry relative="1" as="geometry" />
        </mxCell>
        <mxCell id="H-5vEXhapMnXdz9t79wf-44" value="Carro&#xa;" style="swimlane;fontStyle=2;align=center;verticalAlign=top;childLayout=stackLayout;horizontal=1;startSize=40;horizontalStack=0;resizeParent=1;resizeLast=0;collapsible=1;marginBottom=0;rounded=0;shadow=0;strokeWidth=1;" parent="WIyWlLk6GJQsqaUBKTNV-1" vertex="1">
          <mxGeometry x="580" y="670" width="227" height="220" as="geometry">
            <mxRectangle x="230" y="140" width="160" height="26" as="alternateBounds" />
          </mxGeometry>
        </mxCell>
        <mxCell id="H-5vEXhapMnXdz9t79wf-45" value="- portas: int&#xa;- assentos: int&#xa;- codigoRenavam: string" style="text;align=left;verticalAlign=top;spacingLeft=4;spacingRight=4;overflow=hidden;rotatable=0;points=[[0,0.5],[1,0.5]];portConstraint=eastwest;fillColor=default;" parent="H-5vEXhapMnXdz9t79wf-44" vertex="1">
          <mxGeometry y="40" width="227" height="130" as="geometry" />
        </mxCell>
        <mxCell id="H-5vEXhapMnXdz9t79wf-46" value="" style="line;html=1;strokeWidth=1;align=left;verticalAlign=middle;spacingTop=-1;spacingLeft=3;spacingRight=3;rotatable=0;labelPosition=right;points=[];portConstraint=eastwest;" parent="H-5vEXhapMnXdz9t79wf-44" vertex="1">
          <mxGeometry y="170" width="227" height="8" as="geometry" />
        </mxCell>
        <mxCell id="H-5vEXhapMnXdz9t79wf-47" value="+ Carro(int, ...string)" style="text;align=left;verticalAlign=top;spacingLeft=4;spacingRight=4;overflow=hidden;rotatable=0;points=[[0,0.5],[1,0.5]];portConstraint=eastwest;fillColor=default;" parent="H-5vEXhapMnXdz9t79wf-44" vertex="1">
          <mxGeometry y="178" width="227" height="42" as="geometry" />
        </mxCell>
        <mxCell id="H-5vEXhapMnXdz9t79wf-67" style="edgeStyle=orthogonalEdgeStyle;rounded=0;orthogonalLoop=1;jettySize=auto;html=1;exitX=0.5;exitY=0;exitDx=0;exitDy=0;entryX=0.25;entryY=1;entryDx=0;entryDy=0;" parent="WIyWlLk6GJQsqaUBKTNV-1" source="H-5vEXhapMnXdz9t79wf-48" target="H-5vEXhapMnXdz9t79wf-5" edge="1">
          <mxGeometry relative="1" as="geometry" />
        </mxCell>
        <mxCell id="H-5vEXhapMnXdz9t79wf-48" value="Onibus" style="swimlane;fontStyle=2;align=center;verticalAlign=top;childLayout=stackLayout;horizontal=1;startSize=40;horizontalStack=0;resizeParent=1;resizeLast=0;collapsible=1;marginBottom=0;rounded=0;shadow=0;strokeWidth=1;" parent="WIyWlLk6GJQsqaUBKTNV-1" vertex="1">
          <mxGeometry x="20" y="670" width="227" height="230" as="geometry">
            <mxRectangle x="230" y="140" width="160" height="26" as="alternateBounds" />
          </mxGeometry>
        </mxCell>
        <mxCell id="H-5vEXhapMnXdz9t79wf-49" value="- rodas: int&#xa;- eixos: int&#xa;- assentos: int&#xa;- qtdeOcupantes: int&#xa;- codigoRenavam: string&#xa;" style="text;align=left;verticalAlign=top;spacingLeft=4;spacingRight=4;overflow=hidden;rotatable=0;points=[[0,0.5],[1,0.5]];portConstraint=eastwest;fillColor=default;" parent="H-5vEXhapMnXdz9t79wf-48" vertex="1">
          <mxGeometry y="40" width="227" height="140" as="geometry" />
        </mxCell>
        <mxCell id="H-5vEXhapMnXdz9t79wf-50" value="" style="line;html=1;strokeWidth=1;align=left;verticalAlign=middle;spacingTop=-1;spacingLeft=3;spacingRight=3;rotatable=0;labelPosition=right;points=[];portConstraint=eastwest;" parent="H-5vEXhapMnXdz9t79wf-48" vertex="1">
          <mxGeometry y="180" width="227" height="8" as="geometry" />
        </mxCell>
        <mxCell id="H-5vEXhapMnXdz9t79wf-51" value="+ Onibus(int, ...string)" style="text;align=left;verticalAlign=top;spacingLeft=4;spacingRight=4;overflow=hidden;rotatable=0;points=[[0,0.5],[1,0.5]];portConstraint=eastwest;fillColor=default;" parent="H-5vEXhapMnXdz9t79wf-48" vertex="1">
          <mxGeometry y="188" width="227" height="42" as="geometry" />
        </mxCell>
        <mxCell id="H-5vEXhapMnXdz9t79wf-66" style="edgeStyle=orthogonalEdgeStyle;rounded=0;orthogonalLoop=1;jettySize=auto;html=1;exitX=0.5;exitY=0;exitDx=0;exitDy=0;entryX=1;entryY=0.5;entryDx=0;entryDy=0;" parent="WIyWlLk6GJQsqaUBKTNV-1" source="H-5vEXhapMnXdz9t79wf-52" target="H-5vEXhapMnXdz9t79wf-5" edge="1">
          <mxGeometry relative="1" as="geometry" />
        </mxCell>
        <mxCell id="H-5vEXhapMnXdz9t79wf-52" value="Motocicleta&#xa;" style="swimlane;fontStyle=2;align=center;verticalAlign=top;childLayout=stackLayout;horizontal=1;startSize=40;horizontalStack=0;resizeParent=1;resizeLast=0;collapsible=1;marginBottom=0;rounded=0;shadow=0;strokeWidth=1;" parent="WIyWlLk6GJQsqaUBKTNV-1" vertex="1">
          <mxGeometry x="860" y="670" width="227" height="220" as="geometry">
            <mxRectangle x="230" y="140" width="160" height="26" as="alternateBounds" />
          </mxGeometry>
        </mxCell>
        <mxCell id="H-5vEXhapMnXdz9t79wf-53" value="- codigoRenavam: string" style="text;align=left;verticalAlign=top;spacingLeft=4;spacingRight=4;overflow=hidden;rotatable=0;points=[[0,0.5],[1,0.5]];portConstraint=eastwest;fillColor=default;" parent="H-5vEXhapMnXdz9t79wf-52" vertex="1">
          <mxGeometry y="40" width="227" height="130" as="geometry" />
        </mxCell>
        <mxCell id="H-5vEXhapMnXdz9t79wf-54" value="" style="line;html=1;strokeWidth=1;align=left;verticalAlign=middle;spacingTop=-1;spacingLeft=3;spacingRight=3;rotatable=0;labelPosition=right;points=[];portConstraint=eastwest;" parent="H-5vEXhapMnXdz9t79wf-52" vertex="1">
          <mxGeometry y="170" width="227" height="8" as="geometry" />
        </mxCell>
        <mxCell id="H-5vEXhapMnXdz9t79wf-55" value="+ Motocicleta(int, ...string)&#xa;" style="text;align=left;verticalAlign=top;spacingLeft=4;spacingRight=4;overflow=hidden;rotatable=0;points=[[0,0.5],[1,0.5]];portConstraint=eastwest;fillColor=default;" parent="H-5vEXhapMnXdz9t79wf-52" vertex="1">
          <mxGeometry y="178" width="227" height="42" as="geometry" />
        </mxCell>
        <mxCell id="H-5vEXhapMnXdz9t79wf-64" style="edgeStyle=orthogonalEdgeStyle;rounded=0;orthogonalLoop=1;jettySize=auto;html=1;exitX=0.5;exitY=0;exitDx=0;exitDy=0;entryX=0.5;entryY=1;entryDx=0;entryDy=0;" parent="WIyWlLk6GJQsqaUBKTNV-1" source="H-5vEXhapMnXdz9t79wf-56" target="H-5vEXhapMnXdz9t79wf-5" edge="1">
          <mxGeometry relative="1" as="geometry" />
        </mxCell>
        <mxCell id="H-5vEXhapMnXdz9t79wf-56" value="Aviao&#xa;" style="swimlane;fontStyle=2;align=center;verticalAlign=top;childLayout=stackLayout;horizontal=1;startSize=40;horizontalStack=0;resizeParent=1;resizeLast=0;collapsible=1;marginBottom=0;rounded=0;shadow=0;strokeWidth=1;" parent="WIyWlLk6GJQsqaUBKTNV-1" vertex="1">
          <mxGeometry x="300" y="670" width="227" height="220" as="geometry">
            <mxRectangle x="230" y="140" width="160" height="26" as="alternateBounds" />
          </mxGeometry>
        </mxCell>
        <mxCell id="H-5vEXhapMnXdz9t79wf-57" value="- rodas: int&#xa;- eixos: int&#xa;- assentos: int&#xa;- qtdeOcupantes: int&#xa;- qtdeMotores: int&#xa;- rab: string&#xa;" style="text;align=left;verticalAlign=top;spacingLeft=4;spacingRight=4;overflow=hidden;rotatable=0;points=[[0,0.5],[1,0.5]];portConstraint=eastwest;fillColor=default;" parent="H-5vEXhapMnXdz9t79wf-56" vertex="1">
          <mxGeometry y="40" width="227" height="130" as="geometry" />
        </mxCell>
        <mxCell id="H-5vEXhapMnXdz9t79wf-58" value="" style="line;html=1;strokeWidth=1;align=left;verticalAlign=middle;spacingTop=-1;spacingLeft=3;spacingRight=3;rotatable=0;labelPosition=right;points=[];portConstraint=eastwest;" parent="H-5vEXhapMnXdz9t79wf-56" vertex="1">
          <mxGeometry y="170" width="227" height="8" as="geometry" />
        </mxCell>
        <mxCell id="H-5vEXhapMnXdz9t79wf-59" value="+ Aviao(int, ...int)" style="text;align=left;verticalAlign=top;spacingLeft=4;spacingRight=4;overflow=hidden;rotatable=0;points=[[0,0.5],[1,0.5]];portConstraint=eastwest;fillColor=default;" parent="H-5vEXhapMnXdz9t79wf-56" vertex="1">
          <mxGeometry y="178" width="227" height="42" as="geometry" />
        </mxCell>
      </root>
    </mxGraphModel>
  </diagram>
</mxfile>
